<svg width="447" height="425" viewBox="0 0 447 425" fill="none" xmlns="http://www.w3.org/2000/svg">
<path d="M436 212.5C436 323.269 341.39 414 223.5 414C105.61 414 11 323.269 11 212.5C11 101.731 105.61 11 223.5 11C341.39 11 436 101.731 436 212.5Z" stroke="#393939" stroke-width="22"/>
<rect x="118" y="148" width="40" height="42.2633" rx="20" fill="#393939"/>
<rect x="210" y="148" width="40" height="42.2633" rx="20" fill="#393939"/>
<rect x="302" y="148" width="40" height="40" rx="20" fill="#393939"/>
<path d="M184.646 212C184.646 212 171.914 285 259.488 285C347.062 285 357 212 357 212" stroke="#393939" stroke-width="22" stroke-linecap="round"/>
<path d="M97.6462 212C97.6462 212 84.9137 285 172.488 285C260.062 285 270 212 270 212" stroke="#393939" stroke-width="22" stroke-linecap="round"/>
</svg>
